#define battery_100_width 12
#define battery_100_height 13
static unsigned char battery_100_bits[] = {
   0xf0, 0x00, 0xfc, 0x03, 0xfc, 0x03, 0xfc, 0x03, 0xfc, 0x03, 0xfc, 0x03,
   0xfc, 0x03, 0xfc, 0x03, 0xfc, 0x03, 0xfc, 0x03, 0xfc, 0x03, 0xfc, 0x03,
   0xfc, 0x03 };
