#define cpu_width 12
#define cpu_height 13
static unsigned char cpu_bits[] = {
   0x00, 0x00, 0x55, 0x05, 0x54, 0x01, 0x03, 0x06, 0xf8, 0x00, 0xfb, 0x06,
   0xf8, 0x00, 0xfb, 0x06, 0xf8, 0x00, 0x03, 0x06, 0x54, 0x01, 0x55, 0x05,
   0x00, 0x00 };
