#define memory_width 15
#define memory_height 15
static unsigned char memory_bits[] = {
   0x00, 0x00, 0x00, 0x00, 0x00, 0x00, 0x54, 0x15, 0x00, 0x00, 0xfc, 0x1f,
   0xfc, 0x1f, 0xfc, 0x1f, 0xfc, 0x1f, 0xfc, 0x1f, 0xfc, 0x1f, 0x00, 0x00,
   0x54, 0x15, 0x00, 0x00, 0x00, 0x00 };
