#define tun_width 12
#define tun_height 13
static unsigned char tun_bits[] = {
   0x00, 0x00, 0x00, 0x00, 0x70, 0x00, 0xfc, 0x01, 0xfe, 0x03, 0xfe, 0x03,
   0xff, 0x07, 0xdf, 0x07, 0x8f, 0x07, 0x8f, 0x07, 0x8f, 0x07, 0x8f, 0x07,
   0x00, 0x00 };
